<svg width="480" height="420" viewBox="0 0 480 420" fill="none" xmlns="http://www.w3.org/2000/svg">
  <rect width="480" height="420" rx="28" fill="url(#paint0_linear_0_1)"/>
  <g opacity="0.7" stroke="rgba(255,255,255,0.24)">
    <path d="M60 60H420"/>
    <path d="M60 120H420"/>
    <path d="M60 180H420"/>
    <path d="M60 240H420"/>
    <path d="M60 300H420"/>
    <path d="M60 360H420"/>
    <path d="M60 60V360"/>
    <path d="M120 60V360"/>
    <path d="M180 60V360"/>
    <path d="M240 60V360"/>
    <path d="M300 60V360"/>
    <path d="M360 60V360"/>
    <path d="M420 60V360"/>
  </g>
  <circle cx="162" cy="162" r="70" fill="url(#paint1_radial_0_1)"/>
  <circle cx="322" cy="258" r="88" fill="url(#paint2_radial_0_1)"/>
  <defs>
    <linearGradient id="paint0_linear_0_1" x1="32" y1="28" x2="425" y2="388" gradientUnits="userSpaceOnUse">
      <stop stop-color="#0C1328"/>
      <stop offset="1" stop-color="#070B17"/>
    </linearGradient>
    <radialGradient id="paint1_radial_0_1" cx="0" cy="0" r="1" gradientUnits="userSpaceOnUse" gradientTransform="translate(162 162) rotate(90) scale(70)">
      <stop stop-color="#39A6FF" stop-opacity="0.75"/>
      <stop offset="1" stop-color="#39A6FF" stop-opacity="0"/>
    </radialGradient>
    <radialGradient id="paint2_radial_0_1" cx="0" cy="0" r="1" gradientUnits="userSpaceOnUse" gradientTransform="translate(322 258) rotate(90) scale(88)">
      <stop stop-color="#FF7A18" stop-opacity="0.75"/>
      <stop offset="1" stop-color="#FF7A18" stop-opacity="0"/>
    </radialGradient>
  </defs>
</svg>
