<svg width="128" height="128" viewBox="0 0 128 128" fill="none" xmlns="http://www.w3.org/2000/svg">
  <rect width="128" height="128" rx="18" fill="#F5F2EC"/>
  <g stroke="#1A1A1A" stroke-width="2.1" stroke-linecap="round" stroke-linejoin="round">
    <path d="M22 47C25 41 30 37 37 35C45 33 53 34 59 38C65 42 70 48 74 56C79 66 84 73 92 78C99 82 105 85 110 87C99 90 89 89 81 85C74 82 67 80 60 81C54 82 48 83 41 81C32 79 25 73 22 64C20 57 20 52 22 47Z"/>
    <path d="M31 40C27 38 24 35 22 31"/>
    <path d="M34 37C31 33 30 29 30 25"/>
    <path d="M38 36C38 31 39 27 42 23"/>
    <path d="M44 36C45 32 48 28 52 26"/>
    <path d="M24 47C22 43 22 39 24 35C26 31 30 29 35 29"/>
    <path d="M42 49C46 46 50 45 55 45C60 45 64 47 66 51C68 56 66 61 61 63C56 66 50 66 45 64C41 62 40 55 42 49Z"/>
    <path d="M49 50C51 51 52 53 52 56"/>
    <path d="M59 46C61 43 64 41 68 40C74 39 80 39 86 41"/>
    <path d="M72 40C71 45 72 50 74 56"/>
    <path d="M78 42C79 49 80 56 81 63C82 70 86 76 92 81"/>
    <path d="M84 41C88 45 91 50 94 56"/>
    <path d="M89 39C94 43 98 49 101 56"/>
    <path d="M94 38C99 42 103 48 107 55"/>
    <path d="M98 36C104 41 108 47 111 54"/>
    <path d="M82 47C88 54 92 61 94 69"/>
    <path d="M78 52C84 59 88 66 90 74"/>
    <path d="M73 56C79 63 83 70 85 78"/>
    <path d="M33 65C37 68 41 69 46 69"/>
  </g>
</svg>
